<?xml version="1.0" encoding="UTF-8"?>
<svg xmlns="http://www.w3.org/2000/svg" viewBox="0 0 48 48" width="48" height="48" role="img" aria-label="Optymalizator promptu">
  <title>Optymalizator promptu</title>
  <g fill="none" stroke-width="2.6" stroke-linecap="round" stroke-linejoin="round">
    <path d="M7 13a5 5 0 0 1 5-5h20a5 5 0 0 1 5 5v13a5 5 0 0 1-5 5H19l-9 8v-8a3 3 0 0 1-3-3z" stroke="#8a7f70"/>
    <path d="M15 17h14M15 24h8" stroke="#8a7f70" stroke-width="2.2"/>
    <path d="M38 30l2.2 5.8L46 38l-5.8 2.2L38 46l-2.2-5.8L30 38l5.8-2.2z" fill="#c4643c" stroke="none"/>
  </g>
</svg>
